# xmcd CD database file
#
# Track frame offsets:
#	150
#	25636
#	49809
#	74923
#	108827
#	133736
#	160683
#	186526
#	213980
#	239469
#
# Disc length: 3605 seconds
#
# Revision: 0
# Processed by: cddbd v1.5.2PL0 Copyright (c) Steve Scherf et al.
# Submitted via: CDex 1.51
#
DISCID=910e130a
DTITLE=Jazz Punks - Smashups
DYEAR=2012
DGENRE=Jazz
TTITLE0=Foleo
TTITLE1=Clash-Up
TTITLE2=Creep Train
TTITLE3=Mind Over Matter
TTITLE4=Heavyfoot
TTITLE5=Bo-So
TTITLE6=I Can See Miles
TTITLE7=Little Chickens
TTITLE8=12 Steps To Hell
TTITLE9=Led Gillespie
EXTD=YEAR: 2012
EXTT0=
EXTT1=
EXTT2=
EXTT3=
EXTT4=
EXTT5=
EXTT6=
EXTT7=
EXTT8=
EXTT9=
PLAYORDER=
